<svg class="diagram-root" style="background: #f5f6f6" xmlns="http://www.w3.org/2000/svg" xmlns:xlink="http://www.w3.org/1999/xlink"><style>.diagram-root { font-family: "Helvetica Neue", sans-serif; font-size: 12px; } .t { overflow: visible; } .t-bg { y: 40; fill: #fff;   } .th { fill: #005aa0;   } .tht { fill: #fff; font-size: 14px;  } .tf { fill: #323c46; overflow: visible; } .tf.pk { fill: #005aa0; font-weight: bold; } .tf.fk { font-weight: bold; } .ty { fill: #adb1b5; font-weight: normal; text-anchor: end; } .r { fill: transparent; stroke: #c3c3c3; stroke-width: 1; } .l { stroke: 1; } .i { fill: #c2c7ce; stroke: #c2c7ce; } .i.ix { fill: #afb3b6; stroke: #000; } .fa { fill: transparent; overflow: visible; } .fa .bg.hover { fill: #f7f7f7; } .c { cy: 12; r: 4; stroke: #d2d2dc; fill: #d2d2dc; } .hr { fill: transparent; stroke: #323c46; stroke-opacity: 0.035; stroke-width: 13; } .dc { stroke: #fa5a3c; fill: #fa5a3c; } .x { stroke: white; stroke-width: 1; } .hl .th { fill: #1b9bff; } .hl .tht {  } .fhl .bg { fill: #e7f4ff; } .fhls .bg {  } .r.hl { stroke: #1b9bff; } .dim { opacity: 0.25; }</style><g class="drawing-wrapper" transform="translate(-139, -167) scale(1,1)"><g class="rs"><path d="M 389.08 329 m -1, 0 a 1,1 0 1,0 2,0 a 1,1 0 1,0 -2,0 M 389.08 329 m -0.5, 0 a 0.5,0.5 0 1,0 1,0 a 0.5,0.5 0 1,0 -1,0  M389.08 329 L389.08 329 401.08 329 M 389.08 335 m -1, 0 a 1,1 0 1,0 2,0 a 1,1 0 1,0 -2,0 M 389.08 335 m -0.5, 0 a 0.5,0.5 0 1,0 1,0 a 0.5,0.5 0 1,0 -1,0  M389.08 335 L389.08 335 396.08 329 389.08 323 M 389.08 323 m -1, 0 a 1,1 0 1,0 2,0 a 1,1 0 1,0 -2,0 M 389.08 323 m -0.5, 0 a 0.5,0.5 0 1,0 1,0 a 0.5,0.5 0 1,0 -1,0  M401.08 329 Q 431.06 329, 461.04 328.5 T 521 328 M 533 328 m -1, 0 a 1,1 0 1,0 2,0 a 1,1 0 1,0 -2,0 M 533 328 m -0.5, 0 a 0.5,0.5 0 1,0 1,0 a 0.5,0.5 0 1,0 -1,0  M533 328 L533 328 521 328 M 533 334 m -1, 0 a 1,1 0 1,0 2,0 a 1,1 0 1,0 -2,0 M 533 334 m -0.5, 0 a 0.5,0.5 0 1,0 1,0 a 0.5,0.5 0 1,0 -1,0  M533 334 L533 334 526 328 533 322 M 533 322 m -1, 0 a 1,1 0 1,0 2,0 a 1,1 0 1,0 -2,0 M 533 322 m -0.5, 0 a 0.5,0.5 0 1,0 1,0 a 0.5,0.5 0 1,0 -1,0 " id="h4010724792" class="r"></path></g><g class="hrs"></g><g class="ts"><svg width="211.4" height="150" x="533" y="271" id="h1903237708" class="t"><rect height="40" width="211.4" class="th"></rect><text x="13" y="25" class="tht">Category</text><rect height="110" width="211.4" class="t-bg"></rect><text x="13" y="61" class="tf pk">_id<tspan x="198.4" class="ty">Schema.Types.ObjectID</tspan></text><path d="M7,14A2,2 0 0,1 5,12A2,2 0 0,1 7,10A2,2 0 0,1 9,12A2,2 0 0,1 7,14M12.65,10C11.83,7.67 9.61,6 7, 6A6, 6 0 0, 0 1, 12A6, 6 0 0, 0 7, 18C9.61, 18 11.83, 16.33 12.65, 14H17V18H21V14H23V10H12.65Z" class="i pk" transform="translate(49.013281250000006, 48) scale(0.65)"></path><text x="13" y="86" class="tf">name<tspan x="198.4" class="ty">String</tspan></text><text x="13" y="111" class="tf">description<tspan x="198.4" class="ty">String</tspan></text><text x="13" y="136" class="tf">URL<tspan x="198.4" class="ty">String</tspan></text></svg><svg width="228.08" height="225" x="161" y="197" id="h2048574129" class="t"><rect height="40" width="228.08" class="th"></rect><text x="13" y="25" class="tht">Item</text><rect height="185" width="228.08" class="t-bg"></rect><text x="13" y="61" class="tf pk">_id<tspan x="215.08" class="ty">Schema.Types.ObjectID</tspan></text><path d="M7,14A2,2 0 0,1 5,12A2,2 0 0,1 7,10A2,2 0 0,1 9,12A2,2 0 0,1 7,14M12.65,10C11.83,7.67 9.61,6 7, 6A6, 6 0 0, 0 1, 12A6, 6 0 0, 0 7, 18C9.61, 18 11.83, 16.33 12.65, 14H17V18H21V14H23V10H12.65Z" class="i pk" transform="translate(65.69328125000001, 48) scale(0.65)"></path><text x="13" y="86" class="tf">name<tspan x="215.08" class="ty">String</tspan></text><text x="13" y="111" class="tf">description<tspan x="215.08" class="ty">String</tspan></text><text x="13" y="136" class="tf fk">category<tspan x="215.08" class="ty">[Schema.Types.ObjectID]</tspan></text><text x="13" y="161" class="tf">price<tspan x="215.08" class="ty">Number</tspan></text><text x="13" y="186" class="tf">in_stock<tspan x="215.08" class="ty">Number</tspan></text><text x="13" y="211" class="tf">URL<tspan x="215.08" class="ty">String</tspan></text></svg></g></g></svg>